<?xml version="1.0" encoding="UTF-8"?>
<svg id="_圖層_1" data-name="圖層 1" xmlns="http://www.w3.org/2000/svg" viewBox="0 0 1440 800">
  <defs>
    <style>
      .cls-1 {
        fill: #f4efec;
      }

      .cls-2 {
        fill: #fff;
      }
    </style>
  </defs>
  <rect class="cls-2" width="1440" height="800"/>
  <path class="cls-1" d="M1377.64,411.97c-.2-.97-.6-1.97-1.14-2.8-.92-1.42-2.06-2.68-3.02-4.07-.22-.31-.26-1.03-.06-1.29,.98-1.23,1.98-2.49,3.16-3.51,2.07-1.79,2.64-4.21,1.35-6.61-.56-1.04-1.22-2.07-1.55-3.19-.57-2.01-.88-4.09-1.39-6.12-.28-1.09-1.46-1.99-.6-3.3,.06-.09-.01-.36-.1-.46-1.22-1.16-.8-2.67-.81-4.06-.03-4.97-1.52-9.49-4.53-13.35-3.79-4.86-8.18-9.01-13.95-11.56-5.39-2.39-10.7-4.91-16.4-6.51-12.79-3.57-25.8-5.78-39.04-6.54-9.11-.52-18.21-1.14-27.39-.8-11.77,.44-23.5,.91-35.16,2.76-8.58,1.36-16.98,3.4-24.82,7.25-11.66,5.73-18.35,15.15-20.08,28.17-.23,1.69-.19,3.47-1.54,4.89-.87,.92-1.53,2.1-2.08,3.26-1.22,2.57-2.07,5.26-.88,8.08,.72,1.7,.69,3.26-.1,4.91-1.21,2.5-.33,4.97,2.12,6.27,.73,.38,1.65,.62,2.1,1.23,.61,.84,1.49,2.38,1.16,2.88-1.25,1.86-1.92,4.14-4.09,5.42-2.62,1.54-3.92,4.12-3.78,7.18,.11,2.24,.66,4.45,.97,6.68,.32,2.31,.6,4.63,.88,6.95,.03,.21,.03,.46-.05,.65-.68,1.65-.28,3.22,.26,4.81,.37,1.09,.65,2.22,.84,3.35,1.35,8.06,4.82,14.8,11.22,20.09,7.86,6.49,16.57,11.32,26.15,14.5,4.69,1.55,9.59,2.43,14.39,3.6,11.05,2.7,22.27,3.9,33.63,3.95,7.63,.03,15.26,0,23.81,0,1.69-.17,4.31-.3,6.89-.7,5.28-.82,10.67-.49,15.88-2.11,4.83-1.51,9.78-2.64,14.71-3.74,7.76-1.74,14.9-4.82,21.45-9.39,6.72-4.68,11.35-10.85,13.86-18.68,.35-1.09,.75-2.26,1.46-3.11,2.04-2.4,2-5.14,1.6-7.97-.17-1.28-.47-2.5,.7-3.5,.21-.17,.29-.6,.27-.9-.1-1.76,.71-3.05,2.27-3.89,.61-.33,1.2-.92,1.54-1.54,1.89-3.48,1.18-7.22,.86-10.88-.19-2.12-.55-4.23-.97-6.32Z"/>
  <path class="cls-1" d="M1002.96,558.79c-.16-.75-.46-1.51-.88-2.15-.7-1.09-1.58-2.06-2.32-3.13-.16-.24-.2-.79-.04-.99,.75-.95,1.51-1.91,2.42-2.7,1.6-1.38,2.03-3.23,1.04-5.08-.43-.8-.94-1.59-1.19-2.45-.44-1.54-.68-3.15-1.07-4.71-.21-.84-1.12-1.53-.46-2.53,.05-.07-.01-.28-.08-.35-.93-.89-.61-2.05-.62-3.12-.02-3.82-1.17-7.3-3.48-10.26-2.91-3.73-6.29-6.93-10.72-8.89-4.14-1.83-8.22-3.78-12.6-5-9.82-2.75-19.81-4.45-29.98-5.03-7-.4-13.99-.88-21.04-.61-9.04,.34-18.05,.7-27.01,2.12-6.59,1.05-13.04,2.61-19.06,5.57-8.95,4.4-14.09,11.65-15.42,21.65-.17,1.3-.14,2.67-1.18,3.76-.67,.71-1.17,1.61-1.6,2.5-.94,1.98-1.59,4.04-.67,6.21,.55,1.31,.53,2.51-.08,3.78-.92,1.93-.25,3.82,1.63,4.82,.55,.29,1.27,.48,1.61,.94,.47,.65,1.14,1.83,.89,2.21-.96,1.43-1.47,3.19-3.14,4.16-2.01,1.18-3.01,3.17-2.9,5.52,.08,1.72,.5,3.42,.74,5.14,.25,1.78,.46,3.56,.68,5.34,.02,.16,.02,.35-.04,.5-.53,1.27-.22,2.47,.2,3.7,.28,.84,.5,1.71,.64,2.58,1.04,6.2,3.7,11.38,8.61,15.44,6.04,4.99,12.73,8.7,20.09,11.14,3.6,1.19,7.36,1.86,11.05,2.77,8.49,2.08,17.11,3,25.83,3.03,5.86,.03,11.72,0,18.29,0,1.29-.13,3.31-.23,5.29-.54,4.05-.63,8.2-.38,12.2-1.62,3.7-1.16,7.51-2.03,11.29-2.88,5.96-1.34,11.45-3.71,16.48-7.22,5.16-3.59,8.71-8.34,10.64-14.36,.27-.84,.57-1.74,1.12-2.39,1.56-1.85,1.53-3.95,1.23-6.13-.13-.98-.36-1.92,.54-2.69,.16-.13,.22-.46,.21-.69-.08-1.35,.54-2.34,1.74-2.99,.47-.26,.92-.71,1.18-1.18,1.45-2.67,.91-5.55,.66-8.37-.14-1.63-.42-3.25-.74-4.86Z"/>
  <path class="cls-1" d="M853.83,184.86c-.17-.84-.52-1.7-.99-2.42-.8-1.22-1.79-2.32-2.62-3.52-.19-.27-.23-.89-.05-1.11,.85-1.06,1.71-2.15,2.73-3.03,1.8-1.55,2.29-3.64,1.17-5.71-.49-.9-1.06-1.79-1.34-2.76-.5-1.74-.77-3.54-1.21-5.29-.24-.94-1.26-1.72-.52-2.85,.05-.08,0-.31-.09-.4-1.05-1-.69-2.31-.7-3.51-.02-4.3-1.32-8.2-3.92-11.53-3.28-4.19-7.09-7.79-12.08-9.99-4.67-2.06-9.27-4.25-14.2-5.62-11.07-3.09-22.34-4.99-33.8-5.65-7.9-.45-15.77-.98-23.72-.69-10.19,.38-20.36,.79-30.45,2.38-7.43,1.18-14.71,2.93-21.49,6.26-10.1,4.95-15.89,13.09-17.39,24.33-.2,1.46-.16,2.99-1.33,4.23-.75,.8-1.32,1.81-1.8,2.81-1.06,2.22-1.79,4.55-.76,6.99,.62,1.47,.6,2.82-.09,4.24-1.04,2.16-.28,4.3,1.84,5.42,.62,.33,1.43,.54,1.81,1.06,.53,.73,1.29,2.05,1.01,2.48-1.08,1.61-1.66,3.58-3.54,4.68-2.27,1.33-3.4,3.56-3.27,6.2,.09,1.93,.57,3.85,.84,5.77,.28,2,.52,4,.76,6,.02,.18,.03,.4-.04,.57-.59,1.43-.24,2.78,.22,4.16,.32,.94,.56,1.92,.73,2.9,1.17,6.96,4.17,12.79,9.71,17.35,6.81,5.61,14.35,9.78,22.65,12.52,4.06,1.34,8.3,2.1,12.46,3.11,9.57,2.34,19.29,3.37,29.12,3.41,6.61,.03,13.21,0,20.62,0,1.46-.14,3.73-.26,5.97-.61,4.57-.71,9.24-.42,13.76-1.83,4.18-1.3,8.46-2.28,12.73-3.23,6.72-1.5,12.9-4.17,18.58-8.11,5.82-4.04,9.83-9.37,12-16.14,.3-.94,.65-1.96,1.26-2.68,1.76-2.07,1.73-4.44,1.39-6.89-.15-1.1-.4-2.16,.61-3.03,.18-.15,.25-.52,.23-.78-.09-1.52,.62-2.63,1.96-3.36,.53-.29,1.04-.79,1.34-1.33,1.64-3.01,1.02-6.24,.75-9.4-.16-1.83-.48-3.65-.84-5.46Z"/>
  <path class="cls-1" d="M367.64,558.97c-.2-.97-.6-1.97-1.14-2.8-.92-1.42-2.06-2.68-3.02-4.07-.21-.31-.26-1.03-.05-1.29,.98-1.23,1.97-2.49,3.15-3.51,2.08-1.79,2.64-4.21,1.35-6.61-.56-1.04-1.22-2.07-1.55-3.19-.58-2.01-.89-4.09-1.4-6.12-.27-1.09-1.46-1.99-.6-3.3,.06-.09,0-.36-.1-.46-1.21-1.16-.8-2.67-.81-4.06-.03-4.97-1.52-9.49-4.53-13.35-3.79-4.86-8.18-9.01-13.95-11.56-5.39-2.39-10.7-4.91-16.4-6.51-12.79-3.57-25.8-5.78-39.04-6.54-9.12-.52-18.21-1.14-27.39-.8-11.77,.44-23.51,.91-35.16,2.76-8.58,1.36-16.98,3.4-24.82,7.25-11.66,5.73-18.35,15.15-20.08,28.17-.23,1.69-.19,3.47-1.53,4.89-.87,.92-1.53,2.1-2.09,3.26-1.22,2.57-2.07,5.26-.88,8.08,.72,1.7,.69,3.26-.11,4.91-1.2,2.5-.32,4.97,2.13,6.27,.72,.38,1.65,.62,2.09,1.23,.62,.84,1.49,2.38,1.16,2.88-1.24,1.86-1.92,4.14-4.09,5.42-2.62,1.54-3.92,4.12-3.78,7.18,.1,2.24,.65,4.45,.97,6.68,.32,2.31,.6,4.63,.88,6.95,.03,.21,.03,.46-.05,.65-.69,1.65-.28,3.22,.26,4.81,.37,1.09,.65,2.22,.84,3.35,1.35,8.06,4.82,14.8,11.22,20.09,7.86,6.49,16.58,11.32,26.16,14.5,4.68,1.55,9.58,2.43,14.39,3.6,11.05,2.71,22.27,3.9,33.63,3.95,7.63,.03,15.26,0,23.82,0,1.69-.17,4.3-.3,6.89-.7,5.28-.82,10.67-.49,15.88-2.11,4.82-1.51,9.77-2.64,14.71-3.74,7.76-1.74,14.9-4.82,21.45-9.39,6.72-4.68,11.35-10.85,13.86-18.68,.35-1.09,.75-2.26,1.46-3.11,2.03-2.4,1.99-5.14,1.6-7.97-.18-1.28-.47-2.5,.7-3.5,.2-.17,.29-.6,.27-.9-.1-1.76,.71-3.05,2.26-3.89,.62-.34,1.21-.92,1.54-1.54,1.89-3.48,1.18-7.22,.86-10.88-.19-2.12-.55-4.23-.97-6.32Z"/>
  <path class="cls-1" d="M177.46,311.98c-.26-2.93-.76-5.84-1.34-8.73-.27-1.34-.82-2.72-1.57-3.86-1.27-1.96-2.85-3.7-4.17-5.62-.3-.43-.36-1.42-.08-1.78,1.35-1.7,2.72-3.44,4.36-4.84,2.87-2.47,3.65-5.81,1.86-9.13-.78-1.44-1.69-2.86-2.14-4.41-.8-2.77-1.22-5.65-1.93-8.46-.38-1.5-2.01-2.74-.83-4.55,.09-.13-.01-.5-.14-.63-1.68-1.61-1.1-3.69-1.12-5.61-.04-6.87-2.1-13.11-6.25-18.43-5.23-6.7-11.31-12.45-19.28-15.97-7.44-3.29-14.78-6.79-22.65-8.99-17.66-4.93-35.64-7.98-53.93-9.03-12.59-.72-25.16-1.57-37.84-1.1-10.17,.38-20.31,.78-30.42,1.64v198.64c10.57,1.7,21.23,2.51,31.99,2.55,10.54,.04,21.08,.01,32.9,.01,2.33-.23,5.95-.42,9.52-.97,7.29-1.13,14.75-.68,21.94-2.92,6.66-2.08,13.5-3.64,20.32-5.17,10.72-2.4,20.59-6.66,29.64-12.96,9.28-6.46,15.67-14.98,19.14-25.79,.49-1.5,1.03-3.13,2.02-4.29,2.81-3.32,2.76-7.1,2.21-11.01-.24-1.77-.65-3.45,.97-4.84,.28-.24,.39-.83,.37-1.24-.14-2.42,.98-4.21,3.13-5.38,.85-.46,1.67-1.27,2.13-2.12,2.61-4.8,1.63-9.97,1.19-15.03Z"/>
  <path class="cls-1" d="M1418.46,130.11c-.37-1.8-1.11-3.64-2.11-5.17-1.71-2.62-3.83-4.96-5.61-7.53-.4-.57-.48-1.9-.1-2.39,1.82-2.28,3.66-4.6,5.85-6.49,3.85-3.31,4.9-7.79,2.51-12.23-1.05-1.93-2.27-3.83-2.87-5.9-1.07-3.71-1.65-7.57-2.59-11.33-.51-2.01-2.71-3.68-1.11-6.1,.11-.18-.02-.67-.19-.85-2.25-2.15-1.49-4.95-1.5-7.52-.05-9.2-2.82-17.56-8.4-24.69-7.03-8.98-15.19-16.67-25.89-21.4-10-4.41-19.86-9.09-30.43-12.04-9.1-2.53-18.25-4.69-27.47-6.48h-172.05c-12.08,2.47-23.87,5.95-35.04,11.42-21.63,10.6-34.05,28.04-37.27,52.12-.42,3.13-.34,6.41-2.84,9.06-1.62,1.71-2.84,3.88-3.87,6.03-2.27,4.76-3.85,9.73-1.63,14.96,1.34,3.15,1.28,6.03-.2,9.09-2.23,4.63-.6,9.2,3.95,11.61,1.34,.71,3.07,1.15,3.88,2.27,1.15,1.55,2.77,4.4,2.16,5.32-2.31,3.44-3.55,7.67-7.59,10.03-4.86,2.85-7.28,7.63-7.01,13.29,.2,4.14,1.22,8.24,1.8,12.37,.6,4.28,1.11,8.57,1.63,12.86,.06,.39,.06,.85-.08,1.21-1.28,3.06-.52,5.95,.48,8.9,.68,2.01,1.2,4.11,1.55,6.2,2.52,14.92,8.95,27.39,20.82,37.17,14.58,12.01,30.75,20.95,48.53,26.82,8.69,2.87,17.78,4.49,26.7,6.66,20.5,5.01,41.33,7.22,62.4,7.3,14.15,.06,28.31,.01,44.19,.01,3.13-.31,7.99-.56,12.78-1.3,9.79-1.51,19.81-.91,29.48-3.91,8.95-2.79,18.13-4.88,27.28-6.92,14.41-3.22,27.65-8.93,39.81-17.37,12.47-8.65,21.06-20.07,25.72-34.56,.65-2.01,1.38-4.19,2.71-5.75,3.77-4.44,3.7-9.52,2.97-14.76-.33-2.36-.87-4.63,1.3-6.48,.38-.32,.53-1.11,.5-1.66-.19-3.25,1.32-5.64,4.2-7.2,1.15-.62,2.24-1.7,2.86-2.85,3.51-6.44,2.2-13.35,1.6-20.14-.34-3.93-1.02-7.83-1.8-11.7Z"/>
</svg>