<?xml version="1.0" encoding="utf-8"?>
<!-- Generator: Adobe Illustrator 27.0.0, SVG Export Plug-In . SVG Version: 6.00 Build 0)  -->
<svg version="1.1" id="圖層_1" xmlns="http://www.w3.org/2000/svg" xmlns:xlink="http://www.w3.org/1999/xlink" x="0px" y="0px"
	 viewBox="0 0 106 135" style="enable-background:new 0 0 106 135;" xml:space="preserve">
<style type="text/css">
	.st0{clip-path:url(#SVGID_00000107553606760411348500000018376318939766330760_);}
	.st1{fill:#DDB7AC;}
	.st2{fill:#FFFFFF;}
	.st3{fill-rule:evenodd;clip-rule:evenodd;fill:#FFFFFF;}
</style>
<g>
	<defs>
		<rect id="SVGID_1_" x="0.2" y="29.9" width="106" height="80"/>
	</defs>
	<clipPath id="SVGID_00000174581714824422787670000008967025020630214819_">
		<use xlink:href="#SVGID_1_"  style="overflow:visible;"/>
	</clipPath>
	<g style="clip-path:url(#SVGID_00000174581714824422787670000008967025020630214819_);">
		<path class="st1" d="M105.5,70.3c-0.1-0.5-0.3-1.1-0.6-1.5c-0.5-0.8-1.1-1.5-1.7-2.2c-0.1-0.2-0.1-0.6,0-0.7
			c0.5-0.7,1.1-1.4,1.7-1.9c1.1-1,1.4-2.3,0.7-3.6c-0.3-0.6-0.7-1.1-0.8-1.7c-0.3-1.1-0.5-2.2-0.8-3.3c-0.1-0.6-0.8-1.1-0.3-1.8
			c0-0.1,0-0.2-0.1-0.2c-0.7-0.6-0.4-1.5-0.4-2.2c0-2.7-0.8-5.2-2.5-7.3c-2.1-2.6-4.5-4.9-7.6-6.3c-2.9-1.3-5.8-2.7-9-3.5
			c-7-1.9-14.1-3.1-21.3-3.6c-5-0.3-10-0.6-15-0.4c-6.4,0.2-12.8,0.5-19.2,1.5c-4.7,0.7-9.3,1.8-13.6,3.9c-6.4,3.1-10,8.2-11,15.3
			C4,51.7,4,52.6,3.3,53.4c-0.5,0.5-0.8,1.1-1.1,1.8c-0.7,1.4-1.1,2.9-0.5,4.4C2,60.5,2,61.4,1.6,62.3c-0.7,1.4-0.2,2.7,1.2,3.4
			c0.4,0.2,0.9,0.3,1.1,0.7c0.3,0.5,0.8,1.3,0.6,1.6c-0.7,1-1,2.3-2.2,2.9c-1.4,0.8-2.1,2.2-2.1,3.9c0.1,1.2,0.4,2.4,0.5,3.6
			c0.2,1.3,0.3,2.5,0.5,3.8c0,0.1,0,0.3,0,0.4c-0.4,0.9-0.2,1.8,0.1,2.6c0.2,0.6,0.4,1.2,0.5,1.8c0.7,4.4,2.6,8.1,6.1,10.9
			c4.3,3.5,9.1,6.2,14.3,7.9c2.6,0.8,5.2,1.3,7.9,2c6,1.5,12.2,2.1,18.4,2.1c4.2,0,8.3,0,13,0c0.9-0.1,2.4-0.2,3.8-0.4
			c2.9-0.4,5.8-0.3,8.7-1.2c2.6-0.8,5.3-1.4,8-2c4.2-0.9,8.1-2.6,11.7-5.1c3.7-2.5,6.2-5.9,7.6-10.2c0.2-0.6,0.4-1.2,0.8-1.7
			c1.1-1.3,1.1-2.8,0.9-4.3c-0.1-0.7-0.3-1.4,0.4-1.9c0.1-0.1,0.2-0.3,0.1-0.5c-0.1-1,0.4-1.7,1.2-2.1c0.3-0.2,0.7-0.5,0.8-0.8
			c1-1.9,0.6-3.9,0.5-5.9C105.9,72.6,105.7,71.5,105.5,70.3z"/>
	</g>
</g>
<path class="st2" d="M38.3,67.3c-1.3,0-2.2,0.8-2.7,2.5c0,0,0,0-0.1,0c-0.1,0-0.1,0-0.1-0.1c0-0.4,0.1-1,0.1-1.6
	c0.1-0.7,0.1-1.2,0.1-1.5c0-0.1,0-0.1,0.1-0.1c0.1,0,0.1,0,0.1,0.1c0,0.2,0.3,0.4,0.9,0.4c0.9,0,2,0,3.2,0c0.6,0,1.3,0,2,0l1.1,0
	c0.4,0,0.7,0,0.9-0.1c0.2-0.1,0.3-0.2,0.4-0.3c0,0,0-0.1,0.1-0.1c0.1,0,0.1,0,0.1,0.1c0,0.3-0.1,0.8-0.1,1.5c0,0.7,0,1.3,0,1.7
	c0,0,0,0-0.1,0c-0.1,0-0.1,0-0.1,0c-0.2-0.8-0.5-1.4-0.9-1.8c-0.4-0.4-1-0.6-1.6-0.6c-0.3,0-0.5,0.1-0.6,0.2
	c-0.1,0.1-0.1,0.4-0.1,0.8v7.4c0,0.3,0,0.6,0.1,0.7c0.1,0.1,0.2,0.3,0.4,0.3c0.2,0.1,0.5,0.1,0.9,0.1c0,0,0,0,0,0.1s0,0.1,0,0.1
	c-0.4,0-0.7,0-0.9,0l-1.3,0l-1.3,0c-0.2,0-0.5,0-0.9,0c0,0,0,0,0-0.1s0-0.1,0-0.1c0.4,0,0.7,0,0.8-0.1c0.2-0.1,0.3-0.2,0.4-0.3
	c0.1-0.2,0.1-0.4,0.1-0.7v-7.4c0-0.4,0-0.6-0.1-0.7C38.8,67.4,38.6,67.3,38.3,67.3z M53,77.1c-1,0-1.9-0.2-2.7-0.7
	c-0.8-0.5-1.4-1.1-1.8-1.9c-0.4-0.8-0.6-1.7-0.6-2.6c0-1.1,0.3-2,0.8-2.8c0.6-0.8,1.3-1.4,2.1-1.8c0.9-0.4,1.8-0.6,2.7-0.6
	c1,0,1.9,0.2,2.7,0.7c0.8,0.5,1.4,1.1,1.8,1.9c0.4,0.8,0.6,1.6,0.6,2.5c0,1-0.3,1.9-0.8,2.7s-1.2,1.5-2.1,1.9
	C55,76.9,54,77.1,53,77.1z M53.6,76.7c0.6,0,1.1-0.2,1.6-0.5c0.5-0.4,0.9-0.9,1.1-1.5c0.3-0.7,0.4-1.5,0.4-2.4c0-1-0.1-1.9-0.4-2.6
	c-0.3-0.8-0.7-1.4-1.3-1.8c-0.6-0.4-1.2-0.7-2-0.7c-1,0-1.7,0.4-2.2,1.1c-0.5,0.7-0.8,1.7-0.8,3.1c0,1,0.2,2,0.5,2.8
	c0.3,0.8,0.8,1.4,1.3,1.9C52.2,76.5,52.9,76.7,53.6,76.7z M65.3,75.6c0,0.3,0,0.6,0.1,0.8c0.1,0.1,0.2,0.3,0.4,0.3
	c0.2,0.1,0.5,0.1,1,0.1c0,0,0,0,0,0.1s0,0.1,0,0.1c-0.4,0-0.8,0-1,0l-1.4,0l-1.2,0c-0.2,0-0.5,0-0.9,0c0,0,0,0,0-0.1s0-0.1,0-0.1
	c0.3,0,0.6,0,0.7-0.1c0.2-0.1,0.3-0.2,0.3-0.3c0.1-0.2,0.1-0.4,0.1-0.7v-7.4c0-0.3,0-0.6-0.1-0.7c-0.1-0.1-0.2-0.3-0.3-0.3
	c-0.2-0.1-0.4-0.1-0.7-0.1c0,0,0,0,0-0.1s0-0.1,0-0.1l0.8,0c0.5,0,0.9,0,1.2,0c0.3,0,0.6,0,0.9,0c0.1,0,0.3,0,0.5,0
	c0.2,0,0.5,0,0.7,0c1.1,0,1.9,0.2,2.6,0.7c0.6,0.4,0.9,1.1,0.9,2.1c0,0.7-0.2,1.2-0.5,1.7c-0.3,0.5-0.8,0.8-1.3,1
	c-0.5,0.2-1.1,0.4-1.6,0.4c-0.3,0-0.5,0-0.8-0.1c0,0,0,0,0-0.1c0,0,0-0.1,0-0.1c0,0,0,0,0.1,0c0.2,0,0.3,0.1,0.5,0.1
	c0.5,0,0.9-0.2,1.2-0.7c0.3-0.5,0.5-1.1,0.5-2s-0.2-1.5-0.5-2c-0.4-0.5-0.9-0.7-1.6-0.7c-0.3,0-0.5,0.1-0.6,0.2
	c-0.1,0.1-0.2,0.4-0.2,0.8V75.6z"/>
<path class="st3" d="M15.2,13.4h-2.8h-2.2l0.9-2l4.1-9.1l1.1-2.4l1.1,2.4l4.1,9.1l0.9,2h-2.2h-2.9v121.5h-2V13.4z M13.3,11.4l3-6.6
	l3,6.6H13.3z"/>
</svg>
